<?xml version="1.0" standalone="no"?>
<!DOCTYPE svg PUBLIC "-//W3C//DTD SVG 20010904//EN"
 "http://www.w3.org/TR/2001/REC-SVG-20010904/DTD/svg10.dtd">
<svg version="1.0" xmlns="http://www.w3.org/2000/svg"
 width="350.000000pt" height="350.000000pt" viewBox="0 0 350.000000 350.000000"
 preserveAspectRatio="xMidYMid meet">
<metadata>
Created by potrace 1.11, written by Peter Selinger 2001-2013
</metadata>
<g transform="translate(0.000000,350.000000) scale(0.100000,-0.100000)"
fill="#000000" stroke="none">
<path d="M0 2429 c0 -589 3 -1069 8 -1067 4 3 22 11 40 18 17 8 32 22 32 30 0
10 30 31 77 55 42 22 78 48 81 58 2 9 16 20 31 23 38 10 45 15 30 26 -9 5 0 6
24 2 30 -5 37 -3 37 10 0 18 37 41 42 26 6 -17 78 11 78 31 0 11 9 19 22 21
13 2 28 15 35 29 7 14 21 33 31 42 17 15 18 15 20 -14 2 -20 -1 -28 -8 -24 -6
4 -9 13 -6 21 8 22 -2 17 -15 -7 -8 -17 -8 -20 1 -14 9 6 11 0 8 -23 -2 -17
-1 -29 4 -26 4 3 8 11 8 19 0 8 5 17 11 21 7 4 9 0 5 -14 -4 -11 -3 -23 2 -26
5 -3 8 9 6 27 -3 46 6 78 20 70 6 -4 5 1 -3 10 -16 20 -7 37 11 19 8 -8 18 -5
40 13 37 31 64 34 46 6 -6 -11 -18 -17 -26 -13 -19 7 -42 -24 -42 -57 -1 -25
-1 -25 -15 -7 -14 18 -15 17 -12 -22 1 -23 8 -47 15 -54 7 -7 12 -18 12 -25 0
-17 33 -33 69 -33 36 0 81 -19 81 -34 0 -6 12 -29 26 -50 23 -33 28 -36 36
-22 7 12 5 22 -4 33 -11 14 -10 14 13 -1 37 -23 69 -28 69 -10 0 8 -8 17 -17
20 -31 10 -63 27 -59 31 2 3 14 -1 26 -7 11 -6 33 -10 48 -8 26 3 26 4 -13 23
-34 17 -40 25 -40 52 0 24 -3 29 -12 21 -9 -7 -13 -7 -13 0 0 21 23 24 39 5 9
-10 28 -27 44 -36 20 -13 27 -25 27 -49 0 -17 2 -29 5 -26 14 13 35 126 35
185 0 64 1 66 19 49 18 -17 20 -15 41 41 19 50 32 110 57 250 6 37 -30 107
-50 97 -7 -3 -1 4 12 15 13 12 19 21 15 21 -5 0 -2 6 6 13 8 7 44 46 79 87 57
66 135 130 160 130 5 0 26 16 47 35 46 41 77 52 110 36 33 -15 30 2 -7 33 -27
23 -28 26 -10 26 13 0 27 -12 37 -32 17 -32 45 -60 53 -52 2 2 -2 10 -8 18 -9
11 -9 16 0 22 8 4 9 3 5 -4 -4 -7 -2 -12 4 -12 7 0 26 -10 43 -22 l32 -22 -20
25 c-11 14 -7 12 9 -5 27 -28 34 -30 105 -30 72 -1 181 21 181 36 0 3 15 10
32 14 18 3 42 13 54 21 16 10 23 11 26 2 2 -6 25 -12 50 -13 26 0 50 -4 54 -8
4 -5 14 -8 22 -8 13 0 92 -75 92 -89 0 -3 16 -23 34 -44 19 -21 36 -41 38 -45
2 -4 22 -23 45 -41 23 -19 41 -37 38 -40 -2 -4 8 -6 23 -5 37 2 39 3 22 14 -8
5 -12 12 -9 15 4 3 22 -10 42 -30 37 -37 37 -46 0 -20 -12 8 -24 11 -27 6 -3
-5 1 -11 9 -14 8 -4 12 -15 10 -25 -2 -15 1 -19 15 -15 10 3 21 0 24 -6 4 -6
0 -11 -8 -11 -9 0 -16 -5 -16 -11 0 -8 -4 -8 -14 0 -18 15 -28 -12 -26 -67 4
-81 3 -82 -37 -82 -21 0 -51 7 -67 15 -37 20 -52 19 -35 -2 13 -15 12 -15 -9
-4 -18 10 -26 10 -38 0 -12 -9 -13 -9 -9 2 12 32 -130 56 -159 28 -6 -5 -20
-9 -32 -9 -13 0 -26 -5 -29 -11 -4 -5 -14 -8 -23 -6 -10 2 -33 -5 -54 -15 -31
-15 -39 -27 -57 -81 -24 -72 -21 -112 14 -149 32 -34 85 -27 128 17 46 46 68
55 136 55 59 0 86 -14 60 -31 -10 -6 -11 -9 -1 -9 6 0 12 -5 12 -10 0 -6 -3
-9 -7 -8 -5 1 -23 -6 -42 -16 -20 -11 -43 -15 -60 -12 l-26 6 25 -15 c33 -19
84 -19 122 1 16 9 28 11 24 6 -11 -18 -74 -42 -121 -47 -26 -2 -49 -6 -51 -8
-9 -9 33 -45 65 -56 57 -18 127 12 156 69 14 26 18 28 79 27 70 -2 74 -4 83
-63 3 -20 -3 -44 -16 -68 -12 -20 -21 -43 -21 -52 0 -8 -22 -39 -49 -67 -27
-29 -53 -66 -57 -82 -4 -17 -11 -35 -16 -41 -5 -8 -3 -14 7 -18 8 -3 15 -12
15 -20 0 -8 4 -16 10 -18 12 -4 13 -25 8 -136 -2 -46 0 -88 5 -95 6 -8 8 -8 4
3 -2 8 -1 24 4 35 7 18 8 18 8 2 1 -10 6 -15 11 -12 6 3 10 -1 10 -10 0 -10
-5 -14 -12 -9 -10 5 -10 4 -1 -6 10 -11 15 -11 28 0 20 16 39 1 29 -24 -5 -13
-9 -14 -21 -4 -12 10 -18 8 -34 -12 -10 -14 -19 -28 -19 -32 0 -5 -8 -8 -18
-8 -10 0 -27 -7 -38 -15 -23 -17 -64 -20 -64 -4 0 6 7 9 15 5 8 -3 22 2 31 11
15 15 14 17 -1 25 -11 7 -24 4 -41 -6 -13 -9 -24 -12 -24 -7 0 16 -39 8 -45
-8 -5 -14 -7 -14 -15 -1 -6 8 -10 26 -10 40 -1 24 -1 24 -15 7 -7 -11 -11 -26
-8 -34 5 -12 1 -14 -18 -8 -32 10 -29 5 -30 64 -1 42 -5 51 -18 49 -9 -2 -20
-13 -26 -26 -13 -30 -23 -28 -27 6 -3 24 -7 27 -39 25 -21 -1 -36 3 -36 10 0
7 -2 17 -3 22 -1 6 -2 21 -1 34 1 16 5 21 16 17 8 -3 15 0 15 6 0 6 6 19 14
27 8 9 17 44 21 79 l7 62 -51 0 c-37 0 -53 -4 -57 -15 -5 -12 -29 -15 -133
-15 -150 0 -164 -6 -159 -65 l3 -40 49 3 c37 3 47 1 44 -10 -3 -7 1 -26 9 -42
14 -26 13 -28 -1 -23 -9 4 -16 2 -16 -3 0 -6 9 -10 20 -10 11 0 20 -5 20 -11
0 -5 -6 -7 -12 -4 -7 4 -2 -2 12 -13 21 -18 22 -22 10 -39 -21 -27 -42 -43
-58 -43 -12 0 -12 4 3 20 10 11 21 18 24 15 4 -2 12 5 19 16 16 25 -4 26 -32
1 -35 -31 -146 -67 -131 -42 3 6 1 10 -4 10 -6 0 -11 -6 -11 -12 0 -9 -3 -9
-9 1 -7 11 -14 4 -30 -27 -20 -39 -50 -61 -37 -27 9 24 -8 17 -19 -7 -12 -28
-84 -69 -107 -62 -13 4 -16 1 -12 -10 3 -9 12 -16 20 -16 8 0 14 -5 14 -10 0
-6 -11 -8 -25 -4 -15 4 -25 2 -25 -5 0 -6 6 -11 13 -12 6 0 -8 -8 -32 -17 -24
-9 -46 -23 -49 -30 -3 -9 6 -8 32 4 29 14 38 15 51 4 11 -9 13 -15 5 -20 -14
-8 72 -19 115 -15 17 2 35 4 40 4 6 1 23 12 38 25 25 22 31 23 64 13 28 -9 37
-9 41 1 2 7 10 12 18 12 8 0 14 5 14 10 0 6 4 10 10 10 5 0 7 -8 4 -17 -5 -15
-3 -15 10 1 16 20 16 20 31 0 8 -11 15 -14 15 -6 0 19 20 14 20 -5 1 -16 2
-15 12 2 12 19 12 19 19 -5 6 -24 7 -24 15 -5 5 11 17 21 27 21 21 2 21 2 -3
-48 -23 -48 -24 -52 -9 -43 5 4 15 19 21 33 10 23 12 24 16 8 3 -13 6 -15 11
-7 4 7 37 14 72 16 35 3 88 7 118 9 51 4 56 2 98 -36 45 -42 51 -58 14 -38
-17 9 -21 8 -21 -5 0 -8 -7 -15 -15 -15 -8 0 -15 -6 -15 -14 0 -8 -6 -16 -14
-19 -17 -7 -27 -57 -15 -80 16 -29 31 -8 24 34 -6 35 -5 39 19 45 14 3 26 10
26 16 0 5 4 7 10 3 5 -3 18 0 29 7 17 10 23 9 40 -6 27 -25 27 -36 -1 -28 -18
4 -20 2 -14 -14 4 -10 10 -44 13 -76 5 -51 3 -59 -20 -80 -27 -25 -97 -70 -97
-62 0 3 11 26 25 52 33 61 32 87 0 39 -23 -33 -47 -49 -44 -29 1 4 1 23 -1 42
-1 28 -3 31 -9 15 -5 -11 -6 -23 -4 -28 2 -4 -1 -6 -8 -5 -6 2 -16 -12 -21
-31 -13 -46 -44 -86 -54 -69 -4 6 -2 14 4 16 7 2 12 12 12 21 0 10 11 35 25
55 30 44 25 46 -15 5 -16 -18 -30 -43 -30 -55 0 -13 -4 -24 -9 -24 -5 0 -13
-9 -16 -20 -5 -16 -12 -19 -28 -14 -20 6 -21 5 -7 -12 15 -18 14 -18 -12 -1
-29 18 -38 11 -15 -11 6 -7 12 -24 12 -37 1 -19 -2 -22 -12 -13 -7 6 -13 7
-13 2 0 -4 -6 1 -14 12 -18 24 -31 13 -17 -14 15 -27 14 -75 -1 -90 -9 -9 -9
-12 3 -12 21 0 43 44 36 71 -3 12 -2 18 3 13 5 -5 10 -22 12 -39 l4 -30 11 25
12 25 1 -25 1 -25 10 23 c5 13 7 28 3 33 -3 5 0 9 6 9 6 0 8 -14 6 -36 -5 -39
-48 -93 -75 -95 -11 0 -12 -2 -3 -6 15 -6 6 -23 -14 -23 -8 0 -14 7 -14 16 0
24 -33 13 -47 -16 -12 -24 -13 -24 -13 13 0 21 6 50 14 65 14 28 8 98 -16 167
-5 17 -12 39 -14 50 -5 17 -3 17 8 -3 8 -12 17 -19 22 -15 4 4 4 -1 1 -12 -7
-20 -6 -20 9 -1 10 12 16 39 16 67 0 26 4 50 9 53 5 3 8 -2 7 -11 0 -9 5 -18
12 -20 14 -5 16 58 3 92 -8 19 -8 19 -15 -2 -4 -13 -4 -28 0 -34 4 -7 3 -9 -3
-6 -6 4 -16 0 -23 -8 -12 -15 -44 -9 -34 6 3 5 0 9 -6 9 -6 0 -13 -7 -16 -15
-8 -20 -34 -15 -57 10 -11 13 -8 4 7 -24 30 -54 25 -73 -16 -66 -17 3 -40 11
-51 17 -19 10 -18 8 3 -23 31 -46 59 -67 80 -62 10 3 20 -3 24 -14 3 -10 9
-24 12 -31 4 -8 0 -10 -10 -6 -13 5 -16 -1 -16 -27 0 -37 -7 -36 -12 1 -7 47
-26 69 -55 66 -16 -2 -34 1 -40 6 -7 6 -19 8 -28 4 -8 -3 -14 0 -12 7 1 7 -11
13 -28 15 -28 4 -29 3 -13 -15 9 -10 19 -35 23 -55 7 -35 4 -41 -39 -82 -25
-25 -46 -50 -46 -55 0 -6 15 5 34 24 19 18 36 31 39 29 3 -3 10 11 17 31 7 20
15 34 18 30 11 -10 11 -38 1 -57 -12 -23 3 -24 25 -2 17 17 19 23 17 69 -1 21
1 26 7 16 6 -8 18 -11 29 -7 18 6 20 2 21 -43 2 -58 -25 -105 -78 -132 -29
-16 -31 -19 -12 -19 20 0 21 -3 12 -20 -9 -17 -8 -20 12 -20 l22 0 -22 -16
c-13 -9 -34 -14 -48 -11 -19 3 -33 -3 -55 -27 l-29 -31 -482 -5 -483 -5 544
-2 c504 -2 545 -1 558 15 12 16 13 16 7 -1 -6 -16 24 -17 531 -17 364 0 534 3
530 10 -4 7 -167 8 -501 4 l-494 -7 0 59 c1 63 23 114 33 75 7 -30 102 -73
144 -65 19 4 37 13 40 20 3 8 20 14 40 14 27 0 43 8 71 36 24 24 38 32 45 25
32 -32 104 23 152 116 17 32 34 60 39 62 26 11 45 45 51 92 7 54 27 89 50 89
19 0 35 47 35 100 0 44 3 50 28 62 18 9 38 35 60 78 17 36 46 80 62 97 33 35
38 72 16 112 -11 20 -11 31 0 69 8 25 14 53 14 64 0 10 9 27 19 37 17 17 19
32 17 113 -2 67 1 99 11 114 7 12 18 48 23 79 5 32 19 82 32 112 18 44 26 53
47 53 13 0 33 7 43 17 10 9 18 11 18 5 0 -14 -33 -32 -58 -32 -11 0 -23 -7
-26 -16 -9 -24 -7 -29 6 -16 7 7 16 12 22 12 5 0 1 -7 -10 -16 -13 -10 -15
-17 -7 -20 7 -3 9 -12 6 -20 -4 -10 13 -34 49 -68 30 -29 58 -60 61 -70 4 -9
11 -14 17 -11 6 4 17 -9 24 -27 8 -18 24 -39 36 -46 12 -7 28 -29 37 -49 9
-23 17 -32 22 -24 5 7 18 -7 37 -40 16 -28 34 -59 40 -70 6 -10 19 -28 28 -38
10 -11 15 -24 11 -30 -3 -6 5 -26 19 -44 15 -19 26 -43 26 -55 0 -11 13 -33
29 -49 18 -18 28 -39 29 -57 0 -18 8 -35 22 -46 17 -13 22 -24 18 -45 -4 -18
0 -33 12 -45 10 -10 16 -21 13 -24 -10 -10 8 -56 22 -56 10 0 15 -11 15 -33 0
-18 11 -66 25 -107 13 -41 25 -85 25 -97 0 -15 6 -23 17 -23 15 0 14 -2 -3
-14 -17 -13 -18 -15 -2 -21 12 -5 17 -17 16 -40 -1 -19 5 -41 12 -50 9 -11 10
-18 1 -29 -6 -7 -9 -21 -5 -30 3 -9 1 -16 -4 -16 -8 0 -8 -9 0 -31 6 -17 8
-50 4 -75 -7 -56 0 -74 30 -74 l24 0 0 1750 0 1750 -1750 0 -1750 0 0 -1071z
m1923 860 c12 -6 38 -26 57 -44 l35 -33 55 16 c30 8 67 15 82 14 26 -1 87 -27
98 -42 10 -13 74 -40 96 -40 13 0 38 -13 56 -28 18 -16 59 -41 91 -55 79 -36
157 -102 154 -130 -2 -16 7 -24 43 -38 25 -9 50 -26 56 -38 6 -12 14 -21 16
-19 11 7 71 -50 89 -85 15 -29 19 -52 16 -95 -3 -50 -7 -59 -31 -70 -34 -17
-50 -7 -32 21 17 27 26 110 15 129 -6 9 -9 4 -9 -15 0 -16 -4 -26 -10 -22 -5
3 -10 26 -10 51 0 32 -4 44 -15 44 -8 0 -12 6 -10 13 6 15 -59 49 -80 40 -9
-3 -15 -13 -13 -23 2 -9 -3 -24 -10 -33 -16 -18 -12 -59 5 -64 6 -2 14 4 17
14 7 22 4 39 -7 35 -5 -1 -5 2 -2 9 4 6 18 8 32 4 16 -4 22 -2 18 5 -3 5 -2
10 3 10 18 0 52 -61 52 -94 0 -42 -15 -54 -39 -32 -22 20 -32 11 -21 -18 9
-24 7 -58 -5 -116 -6 -29 -5 -33 6 -22 7 6 23 12 36 12 13 0 23 4 23 9 0 14
57 24 96 16 29 -5 38 -13 53 -48 13 -30 15 -45 7 -53 -8 -9 -13 -9 -19 2 -13
24 -29 16 -26 -13 1 -16 -1 -38 -5 -51 -7 -21 -10 -22 -24 -9 -17 15 -35 21
-59 18 -21 -2 -14 -15 17 -33 32 -18 70 -72 70 -100 0 -15 -8 -12 -45 14 -27
19 -45 40 -45 51 0 18 1 18 25 3 14 -9 25 -13 25 -8 0 4 -13 16 -30 25 -30 18
-30 18 -30 -6 0 -14 -6 -27 -13 -30 -17 -6 -16 26 2 47 12 14 10 16 -11 16
-15 0 -32 -11 -47 -31 -36 -48 -60 -54 -114 -29 -26 12 -47 28 -47 36 0 8 -4
14 -9 14 -5 0 -17 3 -27 7 -12 4 -15 3 -10 -5 10 -16 -6 -15 -28 1 -16 12 -17
18 -7 50 8 22 24 44 42 54 16 10 32 25 35 35 3 10 12 18 20 18 8 0 14 5 14 10
0 6 -4 10 -10 10 -5 0 -7 6 -5 13 7 16 58 19 93 6 21 -8 24 -8 15 2 -6 6 -9
18 -6 25 3 7 -1 19 -9 26 -17 17 -58 18 -58 2 0 -21 -53 -42 -76 -30 -10 6
-21 12 -22 13 -2 1 2 19 9 40 7 21 12 41 11 45 -1 3 5 9 14 12 8 3 13 2 10 -2
-2 -4 -1 -14 3 -21 5 -8 11 3 15 30 4 24 11 46 17 49 13 9 0 40 -16 40 -8 0
-11 -8 -8 -19 3 -10 0 -22 -6 -25 -6 -4 -11 -2 -11 3 0 6 -11 11 -25 11 -14 0
-25 -5 -25 -11 0 -6 -9 -24 -21 -40 -11 -16 -17 -34 -13 -40 4 -8 3 -9 -4 -5
-8 4 -16 -3 -22 -19 -17 -45 -10 -62 10 -25 l19 35 -6 -35 c-7 -43 -21 -81
-22 -61 -1 10 -12 4 -33 -16 -18 -17 -40 -32 -48 -33 -37 -5 -38 2 -7 30 26
22 37 42 44 80 12 57 4 58 -22 0 -10 -22 -24 -40 -32 -40 -7 0 -13 -4 -13 -10
0 -5 -20 -10 -45 -10 -25 0 -45 4 -45 9 0 6 -15 11 -32 13 -29 3 -33 6 -30 30
4 36 -10 42 -42 17 -32 -25 -90 -36 -101 -19 -5 9 -2 10 12 6 25 -8 67 7 96
35 l22 21 -43 -21 c-42 -22 -45 -22 -89 -5 -46 18 -53 15 -66 -21 -2 -6 -17
-5 -39 3 -57 20 -135 18 -166 -5 -15 -11 -37 -23 -49 -27 -34 -11 -48 -33 -33
-51 7 -9 10 -18 6 -22 -3 -3 -6 -1 -6 6 0 8 -7 10 -20 6 -26 -8 -25 -3 5 45
14 22 35 42 48 45 14 4 23 14 23 26 0 28 -13 24 -57 -18 -27 -26 -37 -43 -33
-55 3 -10 0 -18 -6 -18 -17 0 -24 29 -13 53 10 22 2 39 -22 46 -5 2 -19 10
-30 17 -32 23 -53 16 -105 -32 -33 -31 -50 -41 -50 -31 0 20 42 60 89 84 20
10 37 18 38 18 1 1 0 11 -3 22 -5 19 -9 20 -30 11 -13 -6 -22 -13 -20 -15 4
-4 -41 -53 -49 -53 -15 0 44 75 78 100 l41 30 -35 0 c-29 0 -40 -7 -67 -42
-18 -23 -35 -59 -39 -80 -6 -43 -32 -65 -52 -45 -7 7 -16 13 -21 13 -6 1 -15
2 -20 3 -6 0 -9 4 -9 9 1 4 -1 25 -5 47 -6 29 -15 44 -32 52 -19 9 -24 8 -24
-3 0 -8 -10 -19 -22 -24 -13 -5 -19 -9 -15 -9 5 -1 5 -6 2 -11 -5 -8 -12 -7
-23 2 -12 10 -14 10 -8 1 13 -22 -11 -14 -28 10 l-17 22 11 -23 c16 -32 39
-38 73 -18 36 20 41 17 27 -18 -7 -20 -16 -27 -33 -25 -12 2 -28 -1 -36 -5
-10 -6 -12 -5 -7 2 4 7 1 12 -9 12 -8 0 -21 11 -27 25 -9 20 -14 23 -25 13
-11 -9 -16 -9 -23 1 -5 9 -10 10 -14 2 -4 -6 -3 -11 3 -11 5 0 9 -8 8 -18 0
-10 5 -33 13 -52 l14 -34 13 30 c6 16 12 22 13 13 0 -23 96 -26 121 -3 18 16
19 16 19 0 0 -9 -7 -19 -16 -23 -12 -4 -13 -8 -3 -14 9 -5 5 -10 -13 -14 -15
-4 -32 -4 -37 0 -6 3 -11 1 -11 -4 0 -24 53 -10 83 22 22 24 27 26 18 9 -7
-13 -10 -26 -6 -30 3 -3 -5 -12 -17 -20 -14 -8 -16 -11 -5 -8 11 4 16 2 11 -5
-3 -6 -15 -9 -25 -6 -11 3 -19 1 -19 -3 0 -8 -60 10 -70 21 -3 3 -13 8 -22 12
-14 5 -18 1 -18 -18 0 -28 -15 -34 -24 -10 -3 8 -10 15 -16 15 -17 0 -11 -29
10 -50 11 -11 32 -20 46 -20 14 0 23 -4 19 -10 -10 -16 -75 -12 -81 5 -4 8
-10 13 -14 10 -4 -3 -8 1 -7 8 1 34 -6 55 -28 81 -19 24 -26 27 -38 18 -7 -7
-17 -9 -20 -5 -4 3 -7 -1 -7 -9 0 -11 6 -14 21 -11 16 5 20 2 18 -13 -4 -22
14 -59 44 -91 22 -25 73 -31 110 -12 20 9 20 9 -2 -11 -19 -16 -33 -20 -70
-16 -25 2 -54 7 -63 11 -23 9 -51 53 -44 70 3 8 0 17 -6 21 -7 4 -8 3 -4 -4 4
-7 1 -12 -9 -12 -10 0 -13 -5 -9 -12 4 -7 3 -8 -4 -4 -6 4 -22 0 -35 -8 -19
-13 -22 -22 -19 -53 l5 -37 28 34 c16 18 32 31 36 27 3 -4 1 -13 -5 -19 -7 -7
-12 -21 -12 -32 0 -16 2 -18 9 -7 11 17 23 -1 15 -23 -7 -18 20 -66 37 -66 11
0 39 -25 39 -34 0 -11 -46 -6 -59 7 -11 10 -12 9 -6 -1 4 -8 26 -22 49 -32 37
-17 39 -19 14 -19 -31 -1 -98 31 -121 57 -8 9 -24 35 -35 57 -12 22 -21 33
-22 25 0 -17 37 -82 53 -92 6 -4 8 -11 3 -15 -12 -12 -68 63 -88 116 l-16 46
-1 -34 c-1 -19 -4 -32 -7 -28 -4 3 -19 0 -34 -8 -21 -11 -30 -11 -39 -2 -10 9
-11 6 -5 -17 6 -27 5 -29 -15 -23 -21 5 -22 4 -7 -12 25 -27 20 -29 -31 -13
-45 15 -47 15 -65 -7 -17 -22 -25 -61 -12 -61 3 0 15 11 26 26 11 14 23 23 25
20 3 -3 -2 -12 -11 -21 -10 -10 -16 -33 -16 -58 1 -39 2 -41 15 -23 8 11 15
23 15 28 0 4 5 8 10 8 11 0 28 -38 36 -75 4 -22 30 -45 50 -45 22 0 69 46 56
54 -7 4 -12 2 -12 -3 0 -6 -13 -11 -28 -11 -30 0 -68 32 -58 49 3 5 2 11 -4
13 -12 4 -1 48 13 48 6 0 7 -3 4 -6 -9 -9 37 -44 57 -44 9 0 16 -4 16 -9 0
-16 -31 -21 -53 -9 -20 10 -21 10 -8 -6 8 -10 25 -16 40 -15 14 2 34 -2 45 -7
17 -10 15 -14 -21 -52 -33 -35 -46 -42 -77 -42 -21 0 -46 -5 -57 -11 -18 -9
-19 -8 -8 9 9 15 8 24 -5 48 -10 16 -15 21 -12 12 3 -10 2 -20 -3 -22 -14 -9
-51 34 -51 59 0 14 -6 25 -12 26 -10 0 -10 2 0 6 18 7 15 20 -13 60 -13 20
-21 41 -18 46 4 6 -3 8 -15 5 -25 -7 -30 9 -7 18 8 4 15 14 15 23 0 14 -2 14
-10 1 -13 -20 -13 -4 1 21 5 11 14 17 19 14 5 -3 12 7 15 22 3 15 15 46 25 68
11 22 20 45 20 51 0 7 6 14 14 17 17 7 37 72 29 94 -3 8 0 19 8 24 9 6 10 9 2
9 -17 0 -11 38 9 57 11 9 38 16 72 17 l54 1 -2 35 c-1 30 2 35 19 32 20 -3 20
-2 1 13 -15 11 -17 18 -8 27 8 8 15 8 26 -1 9 -7 16 -8 20 -2 4 5 -4 17 -16
26 l-23 16 25 19 c14 11 41 24 60 30 22 6 43 23 56 43 11 17 26 31 32 30 7 -2
11 2 10 9 -2 7 12 17 31 23 18 7 39 21 45 32 21 37 51 69 99 103 44 31 53 34
125 34 42 0 90 -3 105 -6 18 -3 35 1 50 13 22 16 44 22 126 33 19 3 51 -2 72
-10 34 -14 40 -14 71 3 60 32 150 43 191 22z m637 -539 c0 -5 -2 -10 -4 -10
-3 0 -8 5 -11 10 -3 6 -1 10 4 10 6 0 11 -4 11 -10z m-1005 -70 c3 -5 0 -7 -8
-4 -7 2 -26 0 -40 -5 -25 -10 -36 -3 -20 12 10 11 61 8 68 -3z m370 -40 c4 -6
3 -9 -2 -8 -14 4 -53 -13 -53 -23 0 -5 12 -6 28 -3 l27 7 -34 -32 c-40 -36
-46 -38 -32 -13 7 14 6 18 -9 19 -12 1 -20 -7 -24 -23 -5 -19 -11 -24 -26 -19
-13 4 -20 0 -25 -17 l-8 -22 -23 28 c-23 26 -24 46 -3 46 6 0 7 -4 4 -10 -3
-5 1 -10 9 -10 9 0 16 6 16 14 0 8 11 28 25 43 l25 28 -10 -29 c-11 -29 -10
-29 12 -12 24 17 78 45 90 46 4 0 10 -5 13 -10z m568 -77 c5 -27 -19 -83 -35
-83 -11 0 -10 14 3 27 6 6 12 29 12 51 2 45 12 47 20 5z m-1248 -13 c12 -19
-12 -10 -31 11 -19 22 -19 22 3 10 12 -6 25 -16 28 -21z m326 17 c4 -5 4 -18
2 -28 -5 -17 -7 -17 -29 -2 -13 8 -24 21 -24 29 0 14 41 15 51 1z m945 -52
c-3 -8 -10 -15 -15 -15 -7 0 -6 10 1 26 12 26 25 16 14 -11z m-796 6 c16 -30
12 -36 -10 -16 -21 19 -26 35 -10 35 5 0 14 -9 20 -19z m-120 -11 c0 -5 -2
-10 -4 -10 -3 0 -8 5 -11 10 -3 6 -1 10 4 10 6 0 11 -4 11 -10z m-386 -62 c-3
-5 -12 -8 -21 -8 -8 0 -24 -12 -36 -26 -16 -21 -27 -25 -53 -22 -27 3 -31 1
-21 -10 8 -10 27 -13 67 -10 45 4 51 3 30 -6 -14 -6 -27 -13 -30 -17 -11 -15
-75 18 -103 53 -34 42 -31 59 5 34 44 -31 101 -17 127 32 12 22 13 23 26 5 7
-10 11 -21 9 -25z m1716 -32 c0 -24 -16 -43 -27 -32 -8 8 6 56 17 56 6 0 10
-11 10 -24z m-2120 -38 c0 -18 -2 -20 -9 -8 -6 8 -7 18 -5 22 9 14 14 9 14
-14z m2146 -5 c-10 -10 -19 5 -10 18 6 11 8 11 12 0 2 -7 1 -15 -2 -18z m-103
-88 c12 -8 15 -15 8 -20 -6 -3 -11 0 -12 7 0 7 -4 3 -9 -9 -6 -15 -15 -21 -25
-17 -18 7 -20 24 -3 24 6 0 3 10 -8 21 -19 22 -19 22 6 14 14 -4 33 -13 43
-20z m-2310 -9 c7 2 19 -6 26 -19 11 -20 10 -29 -3 -56 -9 -17 -16 -33 -16
-36 1 -23 -3 -27 -10 -10 -5 11 -9 14 -9 7 -1 -7 -6 -10 -12 -6 -15 9 21 -54
39 -68 9 -8 23 -8 48 0 34 10 35 10 20 -7 -9 -10 -16 -21 -16 -25 0 -5 -11
-17 -25 -28 -14 -11 -25 -29 -25 -40 0 -35 -8 -16 -13 30 -3 24 -13 54 -22 68
-9 13 -13 29 -10 33 3 5 0 11 -7 13 -12 4 -14 112 -2 150 6 19 8 19 15 5 5 -9
15 -14 22 -11z m2438 1 c0 -3 11 -18 24 -31 29 -29 31 -41 10 -50 -8 -3 -15
-1 -15 4 0 13 -46 13 -71 0 -33 -18 -21 -25 36 -22 57 4 76 -11 30 -22 -14 -4
-23 -11 -20 -16 4 -6 -9 -10 -29 -10 -26 0 -36 5 -41 21 -5 14 -12 18 -23 14
-10 -4 -4 8 13 26 17 18 24 29 18 25 -9 -5 -13 1 -13 19 0 24 3 26 25 21 14
-3 37 -9 53 -12 l27 -6 -28 19 c-15 11 -24 23 -20 26 8 9 25 5 24 -6z m-507
-12 c11 -8 15 -15 10 -15 -6 0 -19 7 -30 15 -10 8 -14 14 -9 14 6 0 19 -6 29
-14z m386 -19 c0 -2 -8 -10 -17 -17 -16 -13 -17 -12 -4 4 13 16 21 21 21 13z
m-17 -90 c21 -16 22 -26 3 -26 -8 0 -17 -7 -20 -16 -3 -8 -11 -12 -16 -9 -6 4
-10 3 -9 -2 4 -23 -3 -31 -26 -29 -30 1 -30 0 -3 39 44 63 44 63 71 43z
m-1815 -33 c-10 -2 -28 -2 -40 0 -13 2 -5 4 17 4 22 1 32 -1 23 -4z m1542 -23
c13 -8 13 -10 -2 -10 -9 0 -20 5 -23 10 -8 13 5 13 25 0z m-2050 -20 c0 -5 -4
-10 -10 -10 -5 0 -10 5 -10 10 0 6 5 10 10 10 6 0 10 -4 10 -10z m2075 -10
c-11 -5 -27 -9 -35 -9 -9 0 -8 4 5 9 11 5 27 9 35 9 9 0 8 -4 -5 -9z m-1812
-7 c-7 -2 -21 -2 -30 0 -10 3 -4 5 12 5 17 0 24 -2 18 -5z m151 -1 c2 -4 -12
-6 -32 -4 -56 5 -62 10 -15 11 23 1 44 -3 47 -7z m-173 -121 l24 -20 -24 -1
c-30 0 -61 26 -61 52 0 10 -5 18 -11 18 -5 0 -7 -4 -4 -10 3 -5 1 -10 -4 -10
-15 0 -14 23 1 38 9 9 16 4 33 -18 12 -16 32 -38 46 -49z m33 33 c9 -24 7 -28
-9 -14 -17 14 -20 30 -6 30 5 0 12 -7 15 -16z m36 6 c13 -8 13 -10 -2 -10 -9
0 -20 5 -23 10 -8 13 5 13 25 0z m-194 -7 c-4 -4 -21 -12 -39 -18 -26 -8 -33
-17 -38 -45 l-6 -35 -2 36 c-1 28 5 40 22 52 21 16 77 24 63 10z m1679 -31
c-6 -7 -34 11 -29 19 3 5 11 3 19 -4 7 -6 12 -13 10 -15z m625 -19 c-1 -10
-12 -31 -26 -48 -15 -16 -23 -24 -20 -17 4 6 3 12 -3 12 -6 0 -8 7 -5 15 4 8
10 12 15 9 5 -3 9 4 9 15 0 16 7 24 28 30 1 1 2 -7 2 -16z m54 -39 c-4 -22 -9
-33 -11 -27 -3 9 -16 4 -39 -13 -54 -42 -53 -19 2 34 27 26 50 46 52 46 2 -1
0 -19 -4 -40z m-2378 -14 c-14 -17 -26 -27 -26 -22 0 13 41 64 47 58 3 -3 -6
-19 -21 -36z m1650 14 c19 -9 41 -26 49 -37 13 -19 13 -22 -1 -30 -8 -5 -27
-5 -42 -1 -29 8 -129 7 -174 -2 -38 -8 -36 10 6 52 29 29 41 34 81 34 26 0 62
-7 81 -16z m558 -56 c-30 -60 -64 -98 -87 -98 -20 1 -20 3 11 30 17 16 32 34
32 40 0 12 41 58 53 59 4 1 0 -14 -9 -31z m-2246 -23 c-3 -3 -9 2 -12 12 -6
14 -5 15 5 6 7 -7 10 -15 7 -18z m2097 -45 c-29 -31 -45 -38 -45 -20 0 6 6 10
13 10 8 0 22 9 32 20 10 11 20 20 23 20 3 0 -7 -13 -23 -30z m-118 -2 c-3 -8
-6 -5 -6 6 -1 11 2 17 5 13 3 -3 4 -12 1 -19z m173 9 c0 -2 -10 -12 -21 -23
-22 -19 -22 -19 -8 4 12 19 29 30 29 19z m-2031 -10 c-2 -1 -12 -9 -22 -16
-15 -12 -17 -12 -11 3 3 9 13 16 22 16 8 0 13 -1 11 -3z m2171 -15 c0 -5 -9
-18 -21 -31 -12 -12 -19 -25 -16 -28 9 -8 27 7 48 41 15 25 19 27 19 11 0 -11
-7 -31 -16 -43 -12 -18 -25 -22 -67 -22 -72 0 -96 17 -38 26 27 4 52 16 64 30
22 26 27 29 27 16z m-170 -61 c0 -5 -11 -12 -25 -15 -14 -4 -25 -13 -25 -22 0
-9 -5 -12 -12 -8 -8 5 -2 15 16 31 28 24 46 29 46 14z m-1859 -64 c9 -7 20
-23 24 -37 l8 -25 -23 20 c-41 37 -49 73 -9 42z m1800 -43 c-3 -39 5 -44 19
-11 8 21 9 21 9 -6 1 -16 -5 -30 -14 -33 -10 -4 -13 -13 -9 -26 5 -17 3 -18
-15 -9 -24 13 -25 25 -10 87 13 51 25 50 20 -2z m-1800 -31 c13 -16 12 -17 -3
-4 -10 7 -18 15 -18 17 0 8 8 3 21 -13z m1805 -90 c-7 -7 -46 16 -46 28 0 5
11 2 25 -7 14 -9 24 -19 21 -21z m-16 -29 c14 -36 12 -54 -5 -54 -8 0 -23 -10
-35 -22 -16 -18 -20 -19 -20 -5 0 9 10 23 22 31 18 13 19 16 5 16 -9 0 -17 5
-17 10 0 6 8 10 17 10 13 0 14 3 5 12 -16 16 -15 28 3 28 9 0 20 -12 25 -26z
m20 -94 c-12 -8 -11 -10 5 -11 11 0 14 -3 8 -6 -7 -2 -13 -13 -13 -22 0 -19
-30 -51 -52 -55 -7 -1 -19 -5 -25 -9 -15 -9 -9 9 19 63 l19 35 -26 -30 c-14
-16 -25 -25 -26 -20 0 6 -6 -8 -14 -30 -12 -37 -13 -38 -14 -12 -1 39 18 75
30 56 7 -11 9 -9 9 7 0 25 70 68 85 53 6 -6 5 -13 -5 -19z m-137 -111 c-9 -32
-36 -59 -49 -47 -10 10 7 89 18 82 5 -3 7 -12 4 -20 -3 -8 -2 -14 3 -14 5 0
12 12 16 28 4 15 9 22 12 15 2 -6 0 -26 -4 -44z m-62 -16 c2 -29 -2 -48 -14
-61 -9 -10 -17 -25 -17 -33 0 -12 -2 -11 -10 1 -5 8 -10 32 -10 54 0 34 2 37
16 25 14 -11 16 -10 14 16 -3 48 -1 60 9 50 5 -6 11 -29 12 -52z m178 -43
c-19 -36 -39 -60 -39 -46 0 13 43 86 51 86 5 0 -1 -18 -12 -40z m-72 -12 c-3
-8 -6 -5 -6 6 -1 11 2 17 5 13 3 -3 4 -12 1 -19z m-71 -64 c-4 -9 -9 -15 -11
-12 -3 3 -3 13 1 22 4 9 9 15 11 12 3 -3 3 -13 -1 -22z m77 9 c10 -17 -13 -53
-33 -53 -11 0 -20 5 -20 11 0 5 6 7 13 3 7 -5 6 0 -3 11 -9 11 -10 16 -2 11 7
-4 15 -1 18 8 7 17 20 21 27 9z m-688 -33 c3 -5 1 -10 -4 -10 -6 0 -11 5 -11
10 0 6 2 10 4 10 3 0 8 -4 11 -10z m725 -57 c0 -5 -5 -15 -10 -23 -8 -12 -10
-11 -10 8 0 12 5 22 10 22 6 0 10 -3 10 -7z m-120 -62 c0 -5 -6 -14 -14 -20
-12 -10 -14 -9 -11 6 2 10 4 19 4 21 2 6 21 1 21 -7z m-256 -16 c11 -8 28 -15
37 -15 10 0 20 -4 23 -9 9 -13 -77 10 -94 25 -12 12 -12 14 0 14 8 0 24 -7 34
-15z m406 0 c-7 -8 -17 -12 -22 -9 -6 4 -5 10 3 15 22 14 33 10 19 -6z m-109
-18 c-10 -9 -11 -8 -5 6 3 10 9 15 12 12 3 -3 0 -11 -7 -18z m-771 -23 c0 -8
-4 -12 -10 -9 -5 3 -10 10 -10 16 0 5 5 9 10 9 6 0 10 -7 10 -16z m599 -22
c-5 -2 -17 -1 -25 2 -13 5 -14 9 -4 21 11 13 14 13 26 -2 7 -10 9 -19 3 -21z
m214 23 c-3 -9 -8 -14 -10 -11 -3 3 -2 9 2 15 9 16 15 13 8 -4z m-1073 -5 c-8
-5 -19 -10 -25 -10 -5 0 -3 5 5 10 8 5 20 10 25 10 6 0 3 -5 -5 -10z m980 -64
c0 -25 -28 -39 -50 -26 -9 5 -5 14 12 32 27 28 38 26 38 -6z m-823 8 c-3 -3
-12 -4 -19 -1 -8 3 -5 6 6 6 11 1 17 -2 13 -5z m673 -66 c-28 -22 -78 -23
-102 -1 -24 21 -23 36 1 23 24 -12 44 -13 37 -1 -4 5 2 7 12 5 9 -3 28 -1 42
4 33 13 40 -6 10 -30z m135 -8 c-10 -11 -27 -20 -38 -20 -16 0 -13 5 14 23 39
28 50 26 24 -3z m-618 -272 c-3 -7 -5 -2 -5 12 0 14 2 19 5 13 2 -7 2 -19 0
-25z m483 12 c-25 -43 -29 -44 -28 -13 1 24 5 31 19 30 13 -1 15 -5 9 -17z
m-199 -31 c-6 -16 -10 -18 -10 -7 -1 22 12 55 16 42 2 -6 -1 -22 -6 -35z
m-258 1 c3 -11 1 -20 -4 -20 -5 0 -9 9 -9 20 0 11 2 20 4 20 2 0 6 -9 9 -20z
m261 -68 c-9 -39 -19 -46 -18 -11 2 47 3 51 14 44 6 -3 7 -18 4 -33z m-94 -61
c0 -14 -2 -14 -10 -1 -8 12 -12 13 -19 2 -6 -11 -9 -9 -14 7 -2 11 0 22 7 24
15 6 36 -12 36 -32z m135 -19 c-8 -8 -25 10 -25 26 0 13 2 13 14 -4 8 -10 13
-21 11 -22z m-92 -35 c-4 -28 -15 -52 -34 -71 l-28 -30 24 48 c14 28 22 59 20
76 -2 21 0 27 10 24 9 -4 11 -18 8 -47z m-250 -12 c-3 -9 -8 -14 -10 -11 -3 3
-2 9 2 15 9 16 15 13 8 -4z m-47 -41 c-4 -9 -9 -15 -11 -12 -3 3 -3 13 1 22 4
9 9 15 11 12 3 -3 3 -13 -1 -22z m-9 -62 c-10 -10 -14 -22 -10 -27 5 -4 2 -5
-5 -1 -6 4 -19 0 -28 -9 -9 -9 -19 -14 -22 -11 -7 8 18 36 33 36 7 0 18 7 25
15 7 8 15 15 18 15 3 0 -2 -8 -11 -18z m126 -37 c-3 -10 -1 -15 7 -13 7 2 15
-3 17 -10 4 -9 -1 -13 -13 -10 -20 3 -33 48 -15 48 6 0 8 -7 4 -15z m81 1 c-6
-16 -34 -30 -34 -18 0 10 22 32 32 32 4 0 5 -6 2 -14z m-346 -91 c-11 -25 -28
-25 -28 0 0 12 13 22 32 24 4 1 3 -10 -4 -24z m38 0 c-11 -8 -25 -15 -30 -15
-6 0 -2 7 8 15 11 8 25 15 30 15 6 0 2 -7 -8 -15z"/>
<path d="M2249 3116 c29 -31 35 -33 22 -7 -6 10 -18 22 -28 25 -13 5 -11 1 6
-18z"/>
<path d="M1440 3121 c0 -11 26 -22 34 -14 12 12 5 23 -14 23 -11 0 -20 -4 -20
-9z"/>
<path d="M1500 3110 c-8 -5 -12 -11 -9 -14 2 -3 11 -1 19 4 8 5 12 11 9 14 -2
3 -11 1 -19 -4z"/>
<path d="M2210 3076 c0 -2 8 -10 18 -17 15 -13 16 -12 3 4 -13 16 -21 21 -21
13z"/>
<path d="M2323 3034 c-23 -58 -26 -77 -12 -72 7 2 17 22 21 43 11 50 5 67 -9
29z"/>
<path d="M1030 3041 c0 -5 7 -12 16 -15 14 -5 15 -4 4 9 -14 17 -20 19 -20 6z"/>
<path d="M2125 3030 c3 -5 8 -10 11 -10 2 0 4 5 4 10 0 6 -5 10 -11 10 -5 0
-7 -4 -4 -10z"/>
<path d="M2392 3010 c-8 -13 -8 -20 -2 -20 6 0 13 7 17 15 9 24 -1 27 -15 5z"/>
<path d="M981 2996 c2 -1 19 -8 38 -14 29 -10 32 -10 21 3 -7 8 -24 15 -38 15
-14 0 -23 -2 -21 -4z"/>
<path d="M1671 2984 c0 -11 3 -14 6 -6 3 7 2 16 -1 19 -3 4 -6 -2 -5 -13z"/>
<path d="M1483 2975 c-17 -7 -35 -10 -39 -7 -4 4 -4 1 0 -5 4 -8 1 -13 -8 -13
-9 0 -15 -6 -13 -12 1 -7 -4 -12 -11 -10 -8 1 -12 -3 -10 -10 9 -26 41 -19 77
16 21 20 51 41 67 46 l29 8 -30 1 c-16 0 -44 -6 -62 -14z"/>
<path d="M2527 2983 c-14 -13 -6 -30 18 -41 36 -16 44 -14 20 5 -19 15 -18 15
15 9 l35 -6 -24 20 c-23 20 -52 26 -64 13z"/>
<path d="M1850 2956 c-6 -9 -10 -21 -8 -28 3 -8 9 -4 17 10 15 28 9 39 -9 18z"/>
<path d="M1924 2955 c-17 -13 -17 -14 -2 -15 9 0 20 5 23 11 11 17 0 20 -21 4z"/>
<path d="M2085 2949 c8 -42 17 -59 26 -53 10 6 8 42 -4 62 -13 19 -26 14 -22
-9z"/>
<path d="M2426 2958 c3 -4 0 -8 -5 -8 -19 0 -12 -15 12 -25 20 -10 22 -8 24
16 2 22 -2 27 -17 26 -10 -1 -16 -5 -14 -9z"/>
<path d="M1991 2946 c-1 -14 -6 -17 -22 -13 -15 4 -19 3 -12 -4 12 -12 85 -30
92 -24 2 3 -8 9 -22 14 -14 5 -27 18 -30 28 -4 17 -5 17 -6 -1z"/>
<path d="M1499 2931 c-19 -15 -21 -22 -12 -32 10 -10 14 -9 19 4 3 9 20 19 37
23 28 6 30 8 12 15 -29 11 -30 11 -56 -10z"/>
<path d="M963 2915 c-8 -21 2 -29 24 -20 17 8 17 8 -1 13 -15 3 -16 6 -5 13
10 6 11 9 1 9 -7 0 -15 -7 -19 -15z"/>
<path d="M1630 2916 c0 -2 8 -10 18 -17 15 -13 16 -12 3 4 -13 16 -21 21 -21
13z"/>
<path d="M2541 2901 c-1 -20 1 -21 14 -11 16 14 21 25 6 16 -5 -4 -12 0 -14 6
-3 7 -6 2 -6 -11z"/>
<path d="M2637 2899 c4 -13 8 -18 11 -10 2 7 -1 18 -6 23 -8 8 -9 4 -5 -13z"/>
<path d="M1533 2888 c-18 -6 -33 -14 -33 -17 0 -4 25 -12 56 -20 31 -7 64 -15
73 -19 13 -4 12 -1 -3 17 -20 22 -20 22 0 15 10 -3 6 3 -11 15 -33 23 -36 23
-82 9z"/>
<path d="M2196 2890 c-11 -3 -15 -9 -10 -13 10 -6 42 9 34 16 -3 3 -14 1 -24
-3z"/>
<path d="M928 2883 c7 -3 16 -2 19 1 4 3 -2 6 -13 5 -11 0 -14 -3 -6 -6z"/>
<path d="M1170 2865 c0 -12 5 -13 18 -7 9 5 24 12 32 15 8 3 0 6 -17 6 -23 1
-33 -4 -33 -14z"/>
<path d="M915 2860 c-3 -5 -1 -10 4 -10 6 0 11 5 11 10 0 6 -2 10 -4 10 -3 0
-8 -4 -11 -10z"/>
<path d="M1926 2862 c-3 -5 6 -14 19 -20 14 -7 25 -16 25 -22 0 -5 5 -10 11
-10 6 0 9 12 7 28 -2 21 -9 28 -30 30 -14 2 -29 -1 -32 -6z"/>
<path d="M2030 2849 c0 -5 5 -7 10 -4 6 3 10 8 10 11 0 2 -4 4 -10 4 -5 0 -10
-5 -10 -11z"/>
<path d="M2630 2836 c-18 -48 -22 -76 -12 -76 10 0 34 91 27 99 -3 2 -9 -8
-15 -23z"/>
<path d="M970 2840 c0 -5 5 -10 10 -10 6 0 10 5 10 10 0 6 -4 10 -10 10 -5 0
-10 -4 -10 -10z"/>
<path d="M2450 2836 c-6 -6 -10 -17 -10 -25 0 -12 3 -13 8 -4 4 7 23 19 42 27
l35 16 -33 -2 c-18 -1 -37 -7 -42 -12z"/>
<path d="M2080 2829 c0 -5 -8 -9 -17 -9 -13 0 -15 -2 -5 -8 10 -7 10 -16 2
-38 -10 -28 -10 -29 7 -8 10 11 23 21 28 23 9 2 28 40 22 42 -18 6 -37 5 -37
-2z"/>
<path d="M2316 2818 c5 -8 2 -9 -9 -5 -20 8 -20 7 -6 -30 10 -26 12 -27 19 -8
12 29 12 55 -1 55 -5 0 -7 -5 -3 -12z"/>
<path d="M870 2792 c0 -6 18 -26 40 -43 22 -18 43 -43 46 -56 10 -39 27 -27
21 14 -7 41 -35 72 -48 51 -5 -7 -16 -2 -33 17 -14 15 -26 23 -26 17z"/>
<path d="M960 2787 c0 -18 36 -51 43 -40 7 11 -15 47 -30 51 -7 1 -13 -4 -13
-11z"/>
<path d="M2190 2790 l-35 -6 38 -5 c21 -3 40 -2 43 2 7 12 -9 15 -46 9z"/>
<path d="M1823 2749 c-35 -22 -45 -46 -15 -34 19 8 19 8 89 2 38 -3 56 -1 64
9 7 8 9 17 5 21 -3 3 -6 0 -6 -7 0 -10 -4 -8 -13 4 -20 28 -86 31 -124 5z
m102 -3 c17 -13 15 -14 -23 -13 -55 1 -56 15 -1 26 3 0 14 -5 24 -13z"/>
<path d="M2136 2733 c-6 -14 -5 -15 5 -6 7 7 10 15 7 18 -3 3 -9 -2 -12 -12z"/>
<path d="M876 2706 c3 -8 13 -17 21 -20 25 -10 23 -3 -3 17 -18 13 -22 14 -18
3z"/>
<path d="M1038 2713 c7 -3 16 -2 19 1 4 3 -2 6 -13 5 -11 0 -14 -3 -6 -6z"/>
<path d="M2026 2712 c-12 -19 35 -25 53 -7 15 16 15 17 -5 7 -14 -8 -24 -8
-31 -1 -7 7 -13 7 -17 1z"/>
<path d="M2240 2710 c-9 -6 -10 -10 -3 -10 6 0 15 5 18 10 8 12 4 12 -15 0z"/>
<path d="M2620 2701 c0 -5 5 -13 10 -16 6 -3 10 -2 10 4 0 5 -4 13 -10 16 -5
3 -10 2 -10 -4z"/>
<path d="M2261 2664 c-19 -13 -27 -24 -19 -24 8 0 25 11 38 25 29 31 25 30
-19 -1z"/>
<path d="M820 2648 c0 -9 5 -20 10 -23 13 -8 13 5 0 25 -8 13 -10 13 -10 -2z"/>
<path d="M1156 2637 c3 -10 9 -15 12 -12 3 3 0 11 -7 18 -10 9 -11 8 -5 -6z"/>
<path d="M2300 2620 c-9 -6 -10 -10 -3 -10 6 0 15 5 18 10 8 12 4 12 -15 0z"/>
<path d="M790 2592 c7 -15 17 -21 27 -18 8 3 19 6 24 6 5 0 9 7 9 15 0 8 -5
15 -11 15 -5 0 -7 -4 -4 -10 9 -14 -29 -12 -44 3 -11 10 -11 8 -1 -11z"/>
<path d="M2258 2603 c7 -3 16 -2 19 1 4 3 -2 6 -13 5 -11 0 -14 -3 -6 -6z"/>
<path d="M750 2572 c0 -16 -4 -21 -12 -16 -8 5 -8 1 1 -10 13 -15 15 -16 23
-2 5 10 5 23 -1 34 -9 15 -10 14 -11 -6z"/>
<path d="M2609 2537 c2 -23 6 -35 9 -27 2 8 11 23 20 33 17 19 16 22 -13 31
-19 5 -20 2 -16 -37z"/>
<path d="M2660 2561 c0 -5 5 -13 10 -16 6 -3 10 -2 10 4 0 5 -4 13 -10 16 -5
3 -10 2 -10 -4z"/>
<path d="M786 2543 c-6 -14 -5 -15 5 -6 7 7 10 15 7 18 -3 3 -9 -2 -12 -12z"/>
<path d="M684 2519 c-4 -7 -3 -9 4 -5 6 3 15 -2 21 -11 6 -10 11 -13 11 -7 0
20 -27 37 -36 23z"/>
<path d="M2760 2496 c0 -19 6 -38 13 -43 20 -13 95 -14 103 -1 5 8 2 9 -9 5
-10 -4 -14 -2 -11 6 3 8 -8 13 -31 14 -24 1 -33 -2 -29 -10 3 -7 -2 -3 -11 8
-9 11 -14 28 -11 38 2 9 0 17 -5 17 -5 0 -9 -15 -9 -34z"/>
<path d="M630 2510 c0 -5 5 -10 11 -10 5 0 7 5 4 10 -3 6 -8 10 -11 10 -2 0
-4 -4 -4 -10z"/>
<path d="M2712 2499 c3 -8 -1 -26 -9 -41 -14 -28 -29 -36 -35 -19 -1 6 -20 -3
-41 -18 l-37 -29 19 -23 c16 -20 22 -22 44 -12 50 23 96 130 64 150 -5 3 -7 0
-5 -8z"/>
<path d="M691 2495 c1 -19 18 -51 18 -35 0 8 -4 22 -9 30 -5 8 -9 11 -9 5z"/>
<path d="M738 2484 c-5 -4 -8 -16 -8 -28 0 -14 3 -17 11 -9 6 6 9 19 7 28 -1
9 -6 13 -10 9z"/>
<path d="M870 2456 c0 -9 5 -16 10 -16 6 0 10 4 10 9 0 6 -4 13 -10 16 -5 3
-10 -1 -10 -9z"/>
<path d="M717 2429 c7 -7 15 -10 18 -7 3 3 -2 9 -12 12 -14 6 -15 5 -6 -5z"/>
<path d="M581 2366 c-8 -10 -9 -16 -1 -21 5 -3 13 1 16 10 9 22 -1 29 -15 11z"/>
<path d="M692 2134 c10 -10 20 -16 22 -13 3 3 -5 11 -17 18 -21 13 -21 12 -5
-5z"/>
<path d="M555 2039 c-11 -17 1 -21 15 -4 8 9 8 15 2 15 -6 0 -14 -5 -17 -11z"/>
<path d="M1328 1993 c7 -3 16 -2 19 1 4 3 -2 6 -13 5 -11 0 -14 -3 -6 -6z"/>
<path d="M1388 1981 c12 -12 22 -25 22 -29 0 -8 -102 -42 -143 -49 -10 -2 -29
-10 -42 -19 -14 -9 -32 -14 -40 -10 -11 4 -15 -1 -15 -19 0 -19 -4 -23 -17
-18 -13 5 -15 2 -11 -15 4 -12 2 -22 -3 -22 -14 0 2 -34 30 -60 15 -14 39 -26
55 -27 25 -1 31 5 51 50 36 82 84 117 160 117 52 0 113 -28 134 -62 17 -27 13
-29 -39 -17 -24 6 -73 8 -109 6 -52 -4 -70 -10 -92 -30 -15 -14 -30 -23 -32
-20 -3 2 -11 -6 -18 -19 -6 -12 -17 -26 -23 -30 -6 -4 -8 -10 -4 -13 3 -4 16
3 27 14 11 11 27 18 34 15 8 -3 18 5 24 19 23 49 178 62 227 19 48 -41 107
-53 125 -23 4 7 12 11 17 10 27 -5 33 2 24 27 -7 16 -7 23 0 19 12 -8 13 15 1
34 -6 9 -4 23 6 38 14 21 11 27 -9 24 -5 0 -8 12 -8 28 0 24 -5 30 -32 37 -18
4 -40 8 -48 9 -8 0 -21 4 -28 9 -7 4 -36 9 -65 11 -28 3 -81 7 -117 11 l-65 6
23 -21z"/>
<path d="M1736 1851 c-6 -9 26 -21 54 -21 11 1 10 4 -4 15 -22 17 -42 19 -50
6z"/>
<path d="M1390 1710 c0 -8 -8 -10 -21 -7 -16 4 -19 3 -11 -5 6 -6 35 -11 64
-10 76 1 105 4 90 9 -6 3 -9 9 -6 15 4 7 -2 7 -17 3 -40 -13 -73 -14 -86 -3
-9 7 -13 7 -13 -2z"/>
<path d="M1320 1650 c0 -60 91 -86 173 -49 25 11 43 37 33 47 -9 9 -206 11
-206 2z"/>
<path d="M2760 1552 c0 -11 -4 -24 -10 -27 -18 -11 -10 -23 12 -17 16 4 19 2
13 -8 -5 -8 -4 -11 3 -6 7 4 8 17 2 37 -12 40 -20 49 -20 21z"/>
<path d="M1995 1471 c-8 -25 40 -115 56 -106 5 4 6 11 2 18 -4 6 -8 25 -10 41
-2 17 -12 39 -22 50 -18 18 -19 18 -26 -3z"/>
<path d="M910 1440 c-11 -7 -12 -10 -2 -10 7 0 10 -4 7 -10 -3 -5 1 -10 9 -10
17 0 20 8 8 27 -5 8 -13 9 -22 3z"/>
<path d="M1627 1393 c-4 -3 -7 -13 -7 -22 1 -13 3 -13 11 2 11 19 8 33 -4 20z"/>
<path d="M967 1343 c-4 -3 -7 -14 -7 -24 0 -9 -6 -20 -12 -22 -10 -4 -10 -6
-1 -6 7 -1 18 9 24 22 7 12 17 25 23 29 7 5 5 8 -5 8 -9 0 -19 -3 -22 -7z"/>
<path d="M977 1283 c-3 -5 11 -9 31 -10 26 -1 32 1 22 7 -18 12 -47 13 -53 3z"/>
<path d="M940 1260 c0 -5 5 -10 10 -10 6 0 10 5 10 10 0 6 -4 10 -10 10 -5 0
-10 -4 -10 -10z"/>
<path d="M1014 1221 c21 -23 26 -26 26 -11 0 5 -10 15 -22 21 -23 12 -23 12
-4 -10z"/>
<path d="M960 1190 c-12 -8 -8 -10 15 -11 20 -1 24 -3 11 -6 -26 -7 -44 -25
-38 -41 2 -8 -2 -10 -15 -5 -17 7 -17 6 -2 -17 23 -35 49 -38 49 -6 0 14 5 26
11 26 6 0 8 -13 5 -30 -5 -37 1 -39 14 -4 6 14 15 22 20 19 6 -4 8 -11 5 -16
-4 -5 -1 -9 4 -9 6 0 11 4 11 9 0 5 7 12 16 15 12 5 15 2 10 -11 -6 -15 -5
-16 5 -5 10 9 10 15 2 23 -6 6 -9 19 -7 28 3 9 -2 5 -10 -9 -15 -24 -15 -24
-16 -3 0 21 -42 63 -64 63 -6 0 -18 -5 -26 -10z"/>
<path d="M2031 1155 c1 -19 18 -51 18 -35 0 8 -4 22 -9 30 -5 8 -9 11 -9 5z"/>
<path d="M2347 1133 c-2 -5 -7 -21 -11 -38 -6 -28 -5 -29 9 -11 8 11 15 28 15
38 0 19 -6 23 -13 11z"/>
<path d="M2153 1036 c-13 -25 -18 -46 -13 -46 6 0 10 7 10 15 0 7 7 18 16 23
9 5 14 18 12 32 -2 19 -6 15 -25 -24z"/>
<path d="M1657 1063 c-4 -3 -7 -11 -7 -17 0 -6 5 -5 12 2 6 6 9 14 7 17 -3 3
-9 2 -12 -2z"/>
<path d="M1017 1045 c3 -8 9 -12 14 -9 12 7 11 11 -5 17 -10 4 -13 1 -9 -8z"/>
<path d="M1170 1039 c0 -11 4 -18 10 -14 5 3 7 12 3 20 -7 21 -13 19 -13 -6z"/>
<path d="M2206 1052 c-4 -7 -3 -19 2 -28 12 -21 22 -5 12 20 -4 13 -9 16 -14
8z"/>
<path d="M2364 1034 c3 -9 6 -18 6 -20 0 -2 4 -4 9 -4 5 0 7 9 4 20 -3 11 -10
20 -15 20 -6 0 -7 -7 -4 -16z"/>
<path d="M1086 1014 c4 -13 2 -24 -2 -23 -21 4 -25 -2 -13 -18 12 -16 11 -16
-8 0 -15 13 -23 15 -28 7 -4 -6 -13 -9 -21 -6 -8 3 -14 -1 -14 -10 0 -9 -9
-18 -20 -21 -29 -8 -24 -38 11 -65 57 -43 76 -68 83 -108 3 -22 11 -40 17 -40
6 0 9 -7 6 -15 -4 -8 -2 -17 2 -20 5 -2 8 18 8 45 -1 32 -5 50 -13 50 -25 0
35 109 61 110 3 0 6 0 8 1 1 0 10 2 20 4 22 4 47 24 47 38 0 6 -11 0 -25 -13
-23 -22 -25 -22 -30 -4 -10 30 -22 49 -29 46 -10 -4 -36 25 -36 41 0 8 -7 17
-15 21 -12 4 -14 0 -9 -20z m-71 -85 c-4 -34 -11 -46 -21 -36 -6 6 14 67 22
67 2 0 1 -14 -1 -31z m99 -44 c-4 -8 -11 -12 -16 -9 -6 4 -5 10 3 15 19 12 19
11 13 -6z"/>
<path d="M2353 987 c5 -15 37 -22 37 -9 0 5 -9 12 -21 15 -13 3 -19 1 -16 -6z"/>
<path d="M1277 924 c-15 -20 -15 -24 -3 -24 8 0 18 9 21 21 10 29 3 31 -18 3z"/>
<path d="M1151 873 c-1 -6 -4 -20 -7 -30 -5 -17 -5 -17 6 0 6 10 9 23 6 30 -3
9 -5 9 -5 0z"/>
<path d="M1190 860 c-14 -10 -22 -21 -19 -24 3 -3 16 5 29 19 28 30 24 32 -10
5z"/>
<path d="M1270 861 c-33 -6 -34 -7 -10 -14 14 -4 38 -7 54 -7 24 0 27 2 16 15
-7 8 -15 14 -19 14 -3 -1 -22 -5 -41 -8z"/>
<path d="M1245 796 c-16 -7 -35 -11 -40 -9 -6 2 -12 -11 -13 -29 -3 -43 -19
-60 -43 -47 -10 5 -20 7 -20 4 -3 -13 -6 -21 -13 -38 -5 -9 -5 -28 -2 -42 4
-14 6 -27 5 -30 0 -3 10 -25 24 -48 23 -41 63 -155 59 -169 -1 -4 7 -12 18
-18 11 -6 18 -15 15 -20 -8 -13 40 -34 59 -27 18 7 22 63 6 69 -6 2 -12 15
-14 30 -1 14 -10 33 -19 43 -9 9 -17 26 -17 38 1 19 3 19 17 -8 9 -16 22 -35
29 -42 7 -8 11 -20 7 -28 -4 -11 -1 -13 11 -9 12 5 15 2 10 -12 -5 -15 -4 -16
4 -4 6 8 8 18 6 22 -3 4 0 8 5 8 6 0 11 10 11 23 0 32 -25 109 -32 101 -4 -3
-10 5 -14 20 -3 14 -13 26 -21 26 -17 0 -43 24 -43 39 0 6 -6 11 -12 11 -21 0
-37 47 -28 78 8 26 8 26 9 -9 1 -22 6 -36 14 -36 9 0 12 10 9 29 -3 19 2 36
15 51 20 22 37 47 31 47 -2 -1 -16 -7 -33 -14z m-48 -168 c-3 -8 -6 -5 -6 6
-1 11 2 17 5 13 3 -3 4 -12 1 -19z m97 -85 c4 -9 0 -23 -9 -32 -13 -14 -15
-12 -15 17 0 34 14 43 24 15z"/>
<path d="M1132 781 c-14 -15 -14 -16 2 -19 17 -4 46 14 46 28 0 13 -32 7 -48
-9z"/>
<path d="M1718 783 c-10 -2 -18 -9 -18 -14 0 -14 26 -11 40 6 13 15 9 16 -22
8z"/>
<path d="M1250 744 c-10 -26 -5 -48 10 -39 4 3 7 -3 6 -12 0 -9 5 -18 12 -20
6 -3 12 2 12 11 0 9 5 16 10 16 6 0 10 7 10 16 0 8 -4 12 -10 9 -5 -3 -10 2
-10 12 0 15 -2 16 -10 3 -5 -8 -12 -11 -16 -7 -4 3 -1 13 6 22 9 11 9 15 1 15
-6 0 -16 -12 -21 -26z"/>
<path d="M1790 755 c-24 -14 -24 -14 -4 -15 12 0 24 7 28 15 6 18 7 18 -24 0z"/>
<path d="M1350 750 c-9 -6 -10 -10 -3 -10 6 0 15 5 18 10 8 12 4 12 -15 0z"/>
<path d="M1324 675 c-11 -27 2 -37 14 -11 7 16 8 26 1 26 -5 0 -12 -7 -15 -15z"/>
<path d="M2200 630 c0 -8 5 -22 10 -30 9 -13 10 -13 10 0 0 8 -5 22 -10 30 -9
13 -10 13 -10 0z"/>
<path d="M1407 623 c-4 -3 -7 -13 -7 -22 1 -13 3 -13 11 2 11 19 8 33 -4 20z"/>
<path d="M1540 611 c0 -5 -3 -18 -6 -28 -5 -16 -4 -16 10 1 18 23 20 36 6 36
-5 0 -10 -4 -10 -9z"/>
<path d="M1966 569 c-10 -20 -13 -36 -7 -42 6 -6 13 5 20 29 13 49 8 54 -13
13z"/>
<path d="M2020 583 c0 -10 -3 -36 -6 -58 -7 -54 11 -25 21 33 4 28 3 42 -4 42
-6 0 -11 -8 -11 -17z"/>
<path d="M1351 568 c8 -16 9 -23 1 -26 -13 -4 -4 -32 10 -32 18 0 39 -30 45
-65 4 -28 0 -42 -21 -70 -15 -19 -24 -40 -21 -45 4 -6 3 -9 -2 -8 -4 1 -18 -6
-30 -16 l-21 -19 24 -41 c14 -23 33 -59 43 -82 15 -32 26 -42 58 -52 22 -7 48
-12 57 -12 9 0 16 -5 16 -12 0 -6 3 -9 6 -5 3 3 -1 16 -10 29 -9 12 -16 32
-16 43 0 17 -2 18 -11 5 -9 -12 -9 -11 -4 5 5 11 10 34 12 50 3 17 12 35 20
42 8 6 21 31 29 55 l14 43 -6 -39 c-5 -36 -4 -38 10 -27 27 23 15 79 -21 101
-17 10 -33 30 -37 45 -7 29 -28 55 -44 55 -6 0 -13 6 -15 13 -3 6 -6 3 -6 -7
-1 -20 -1 -20 -19 0 -10 10 -28 36 -41 57 -24 40 -39 51 -20 15z m134 -157 c7
-24 -9 -67 -32 -80 -15 -9 -15 -10 -2 -11 17 0 43 25 52 50 4 12 6 11 6 -3 2
-30 -29 -67 -56 -67 -13 0 -22 -4 -19 -9 3 -4 -6 -6 -20 -3 -23 4 -25 2 -19
-17 4 -14 2 -21 -6 -21 -10 0 -10 -3 -1 -12 17 -17 15 -24 -7 -24 -14 0 -20 9
-23 33 -2 18 0 33 4 33 4 0 10 10 13 23 4 13 19 31 36 41 16 9 32 28 35 41 3
14 11 22 17 18 6 -4 8 0 4 10 -3 10 -2 17 3 17 5 0 11 -8 15 -19z m-44 -188
c-8 -15 -10 -15 -11 -2 0 17 10 32 18 25 2 -3 -1 -13 -7 -23z m-11 -50 c0 -14
-19 -38 -25 -32 -8 8 5 39 16 39 5 0 9 -3 9 -7z"/>
<path d="M2112 570 c0 -14 2 -19 5 -12 2 6 2 18 0 25 -3 6 -5 1 -5 -13z"/>
<path d="M2257 565 c-5 -16 -23 -48 -40 -70 l-32 -40 33 24 c36 25 55 62 50
95 -3 17 -5 15 -11 -9z"/>
<path d="M1490 560 c-6 -12 -8 -29 -4 -38 5 -13 9 -8 15 18 9 42 5 50 -11 20z"/>
<path d="M1547 545 c-4 -8 -2 -17 3 -20 6 -4 10 3 10 14 0 25 -6 27 -13 6z"/>
<path d="M1600 446 c0 -2 8 -10 18 -17 15 -13 16 -12 3 4 -13 16 -21 21 -21
13z"/>
<path d="M1640 446 c0 -2 7 -9 15 -16 9 -7 15 -8 15 -2 0 5 -7 12 -15 16 -8 3
-15 4 -15 2z"/>
<path d="M1379 433 c0 -4 -2 -16 -4 -25 -4 -23 2 -23 15 1 7 13 7 22 0 26 -5
3 -10 3 -11 -2z"/>
<path d="M1565 390 c-3 -6 1 -13 10 -16 13 -6 14 -8 3 -15 -10 -7 -8 -9 6 -9
16 0 18 -5 13 -36 -5 -30 -4 -34 8 -24 21 18 18 63 -5 88 -24 25 -26 26 -35
12z"/>
<path d="M1910 372 c0 -5 7 -15 15 -22 8 -7 15 -9 15 -6 0 4 -7 14 -15 22 -8
9 -15 11 -15 6z"/>
<path d="M1870 346 c0 -8 5 -18 10 -21 6 -3 10 3 10 14 0 12 -4 21 -10 21 -5
0 -10 -6 -10 -14z"/>
<path d="M1508 245 c-8 -13 -4 -72 5 -81 11 -12 13 -2 7 46 -3 25 -8 40 -12
35z"/>
<path d="M1573 140 c3 -11 2 -18 -2 -15 -5 2 -6 -7 -3 -21 4 -25 5 -25 19 -4
8 11 11 25 8 30 -3 6 -1 10 5 10 6 0 8 5 5 10 -12 19 -38 11 -32 -10z"/>
<path d="M1532 119 c6 -16 13 -28 15 -25 8 8 -6 56 -17 56 -5 0 -5 -13 2 -31z"/>
</g>
</svg>
